ISO-10303-21;
HEADER;
/* Generated by software containing ST-Developer
 * from STEP Tools, Inc. (www.steptools.com) 
 */

FILE_DESCRIPTION(
/* description */ (''),
/* implementation_level */ '2;1');

FILE_NAME(
/* name */ 'cirque-housing-modified.step',
/* time_stamp */ '2026-03-23T17:55:29+01:00',
/* author */ (''),
/* organization */ (''),
/* preprocessor_version */ 'ST-DEVELOPER v20.1',
/* originating_system */ 'Autodesk Translation Framework v14.24.0.0',
/* authorisation */ '');

FILE_SCHEMA (('AUTOMOTIVE_DESIGN { 1 0 10303 214 3 1 1 }'));
ENDSEC;

DATA;
#10=MECHANICAL_DESIGN_GEOMETRIC_PRESENTATION_REPRESENTATION('',(#13),#1068);
#11=SHAPE_REPRESENTATION_RELATIONSHIP('SRR','None',#1075,#12);
#12=ADVANCED_BREP_SHAPE_REPRESENTATION('',(#14),#1067);
#13=STYLED_ITEM('',(#1085),#14);
#14=MANIFOLD_SOLID_BREP('Body1',#616);
#15=CONICAL_SURFACE('',#657,2.5,0.785398163397446);
#16=CONICAL_SURFACE('',#661,2.5,0.785398163397449);
#17=CONICAL_SURFACE('',#665,2.5,0.785398163397447);
#18=CONICAL_SURFACE('',#669,2.49999999999999,0.785398163397454);
#19=ELLIPSE('',#651,372.645273685307,263.499999999999);
#20=ELLIPSE('',#653,372.645273685308,263.5);
#21=FACE_BOUND('',#86,.T.);
#22=FACE_BOUND('',#111,.T.);
#23=FACE_BOUND('',#114,.T.);
#24=FACE_BOUND('',#115,.T.);
#25=FACE_BOUND('',#116,.T.);
#26=PLANE('',#637);
#27=PLANE('',#638);
#28=PLANE('',#642);
#29=PLANE('',#645);
#30=PLANE('',#647);
#31=PLANE('',#649);
#32=PLANE('',#655);
#33=PLANE('',#656);
#34=PLANE('',#660);
#35=PLANE('',#664);
#36=PLANE('',#668);
#37=PLANE('',#674);
#38=PLANE('',#677);
#39=PLANE('',#680);
#40=PLANE('',#683);
#41=PLANE('',#684);
#42=PLANE('',#685);
#43=PLANE('',#686);
#44=PLANE('',#691);
#45=PLANE('',#694);
#46=PLANE('',#696);
#47=FACE_OUTER_BOUND('',#83,.T.);
#48=FACE_OUTER_BOUND('',#84,.T.);
#49=FACE_OUTER_BOUND('',#85,.T.);
#50=FACE_OUTER_BOUND('',#87,.T.);
#51=FACE_OUTER_BOUND('',#88,.T.);
#52=FACE_OUTER_BOUND('',#89,.T.);
#53=FACE_OUTER_BOUND('',#90,.T.);
#54=FACE_OUTER_BOUND('',#91,.T.);
#55=FACE_OUTER_BOUND('',#92,.T.);
#56=FACE_OUTER_BOUND('',#93,.T.);
#57=FACE_OUTER_BOUND('',#94,.T.);
#58=FACE_OUTER_BOUND('',#95,.T.);
#59=FACE_OUTER_BOUND('',#96,.T.);
#60=FACE_OUTER_BOUND('',#97,.T.);
#61=FACE_OUTER_BOUND('',#98,.T.);
#62=FACE_OUTER_BOUND('',#99,.T.);
#63=FACE_OUTER_BOUND('',#100,.T.);
#64=FACE_OUTER_BOUND('',#101,.T.);
#65=FACE_OUTER_BOUND('',#102,.T.);
#66=FACE_OUTER_BOUND('',#103,.T.);
#67=FACE_OUTER_BOUND('',#104,.T.);
#68=FACE_OUTER_BOUND('',#105,.T.);
#69=FACE_OUTER_BOUND('',#106,.T.);
#70=FACE_OUTER_BOUND('',#107,.T.);
#71=FACE_OUTER_BOUND('',#108,.T.);
#72=FACE_OUTER_BOUND('',#109,.T.);
#73=FACE_OUTER_BOUND('',#110,.T.);
#74=FACE_OUTER_BOUND('',#112,.T.);
#75=FACE_OUTER_BOUND('',#113,.T.);
#76=FACE_OUTER_BOUND('',#117,.T.);
#77=FACE_OUTER_BOUND('',#118,.T.);
#78=FACE_OUTER_BOUND('',#119,.T.);
#79=FACE_OUTER_BOUND('',#120,.T.);
#80=FACE_OUTER_BOUND('',#121,.T.);
#81=FACE_OUTER_BOUND('',#122,.T.);
#82=FACE_OUTER_BOUND('',#123,.T.);
#83=EDGE_LOOP('',(#399,#400,#401,#402,#403,#404,#405,#406,#407,#408,#409,
#410));
#84=EDGE_LOOP('',(#411,#412,#413,#414));
#85=EDGE_LOOP('',(#415,#416,#417,#418,#419,#420,#421,#422,#423));
#86=EDGE_LOOP('',(#424));
#87=EDGE_LOOP('',(#425,#426,#427,#428));
#88=EDGE_LOOP('',(#429,#430,#431,#432));
#89=EDGE_LOOP('',(#433,#434,#435,#436));
#90=EDGE_LOOP('',(#437,#438,#439,#440));
#91=EDGE_LOOP('',(#441,#442,#443,#444));
#92=EDGE_LOOP('',(#445,#446,#447,#448,#449,#450));
#93=EDGE_LOOP('',(#451,#452,#453,#454));
#94=EDGE_LOOP('',(#455,#456,#457,#458));
#95=EDGE_LOOP('',(#459,#460,#461,#462));
#96=EDGE_LOOP('',(#463,#464,#465,#466));
#97=EDGE_LOOP('',(#467,#468,#469,#470));
#98=EDGE_LOOP('',(#471,#472,#473,#474));
#99=EDGE_LOOP('',(#475,#476,#477,#478));
#100=EDGE_LOOP('',(#479,#480,#481,#482));
#101=EDGE_LOOP('',(#483,#484,#485,#486));
#102=EDGE_LOOP('',(#487,#488,#489,#490));
#103=EDGE_LOOP('',(#491,#492,#493,#494));
#104=EDGE_LOOP('',(#495,#496,#497,#498));
#105=EDGE_LOOP('',(#499,#500,#501,#502));
#106=EDGE_LOOP('',(#503,#504,#505,#506));
#107=EDGE_LOOP('',(#507,#508,#509,#510));
#108=EDGE_LOOP('',(#511,#512,#513,#514));
#109=EDGE_LOOP('',(#515,#516,#517,#518));
#110=EDGE_LOOP('',(#519,#520,#521,#522,#523,#524,#525,#526,#527,#528));
#111=EDGE_LOOP('',(#529));
#112=EDGE_LOOP('',(#530,#531,#532,#533));
#113=EDGE_LOOP('',(#534,#535,#536,#537,#538,#539,#540,#541,#542,#543));
#114=EDGE_LOOP('',(#544));
#115=EDGE_LOOP('',(#545));
#116=EDGE_LOOP('',(#546));
#117=EDGE_LOOP('',(#547,#548,#549,#550));
#118=EDGE_LOOP('',(#551));
#119=EDGE_LOOP('',(#552,#553,#554,#555));
#120=EDGE_LOOP('',(#556));
#121=EDGE_LOOP('',(#557,#558,#559,#560));
#122=EDGE_LOOP('',(#561,#562,#563,#564));
#123=EDGE_LOOP('',(#565,#566,#567,#568));
#124=CIRCLE('',#631,17.6);
#125=CIRCLE('',#632,17.6);
#126=CIRCLE('',#633,17.6);
#127=CIRCLE('',#634,17.6);
#128=CIRCLE('',#635,17.6);
#129=CIRCLE('',#636,17.6);
#130=CIRCLE('',#639,0.399999999999995);
#131=CIRCLE('',#640,0.400000000000004);
#132=CIRCLE('',#641,16.15);
#133=CIRCLE('',#644,16.15);
#134=CIRCLE('',#646,0.400000000000004);
#135=CIRCLE('',#648,0.399999999999995);
#136=CIRCLE('',#652,263.499999999999);
#137=CIRCLE('',#654,263.499999999999);
#138=CIRCLE('',#658,3.);
#139=CIRCLE('',#659,2.);
#140=CIRCLE('',#662,3.);
#141=CIRCLE('',#663,2.);
#142=CIRCLE('',#666,3.);
#143=CIRCLE('',#667,2.);
#144=CIRCLE('',#670,3.);
#145=CIRCLE('',#671,1.99999999999999);
#146=CIRCLE('',#673,3.);
#147=CIRCLE('',#676,3.);
#148=CIRCLE('',#679,3.);
#149=CIRCLE('',#682,3.);
#150=CIRCLE('',#687,1.7);
#151=CIRCLE('',#688,1.7);
#152=CIRCLE('',#690,1.7);
#153=CIRCLE('',#693,1.7);
#154=LINE('',#893,#207);
#155=LINE('',#897,#208);
#156=LINE('',#901,#209);
#157=LINE('',#905,#210);
#158=LINE('',#909,#211);
#159=LINE('',#914,#212);
#160=LINE('',#916,#213);
#161=LINE('',#917,#214);
#162=LINE('',#920,#215);
#163=LINE('',#923,#216);
#164=LINE('',#925,#217);
#165=LINE('',#931,#218);
#166=LINE('',#932,#219);
#167=LINE('',#935,#220);
#168=LINE('',#940,#221);
#169=LINE('',#943,#222);
#170=LINE('',#946,#223);
#171=LINE('',#952,#224);
#172=LINE('',#956,#225);
#173=LINE('',#962,#226);
#174=LINE('',#964,#227);
#175=LINE('',#965,#228);
#176=LINE('',#968,#229);
#177=LINE('',#970,#230);
#178=LINE('',#971,#231);
#179=LINE('',#976,#232);
#180=LINE('',#981,#233);
#181=LINE('',#982,#234);
#182=LINE('',#983,#235);
#183=LINE('',#988,#236);
#184=LINE('',#993,#237);
#185=LINE('',#994,#238);
#186=LINE('',#995,#239);
#187=LINE('',#1000,#240);
#188=LINE('',#1005,#241);
#189=LINE('',#1006,#242);
#190=LINE('',#1007,#243);
#191=LINE('',#1013,#244);
#192=LINE('',#1016,#245);
#193=LINE('',#1019,#246);
#194=LINE('',#1020,#247);
#195=LINE('',#1023,#248);
#196=LINE('',#1027,#249);
#197=LINE('',#1028,#250);
#198=LINE('',#1031,#251);
#199=LINE('',#1035,#252);
#200=LINE('',#1036,#253);
#201=LINE('',#1039,#254);
#202=LINE('',#1042,#255);
#203=LINE('',#1045,#256);
#204=LINE('',#1053,#257);
#205=LINE('',#1058,#258);
#206=LINE('',#1062,#259);
#207=VECTOR('',#702,10.);
#208=VECTOR('',#705,10.);
#209=VECTOR('',#708,10.);
#210=VECTOR('',#711,10.);
#211=VECTOR('',#714,17.6);
#212=VECTOR('',#721,10.);
#213=VECTOR('',#722,10.);
#214=VECTOR('',#723,10.);
#215=VECTOR('',#726,10.);
#216=VECTOR('',#729,10.);
#217=VECTOR('',#730,10.);
#218=VECTOR('',#737,10.);
#219=VECTOR('',#738,10.);
#220=VECTOR('',#741,16.15);
#221=VECTOR('',#748,10.);
#222=VECTOR('',#751,10.);
#223=VECTOR('',#756,10.);
#224=VECTOR('',#761,10.);
#225=VECTOR('',#764,10.);
#226=VECTOR('',#771,10.);
#227=VECTOR('',#772,10.);
#228=VECTOR('',#773,10.);
#229=VECTOR('',#776,10.);
#230=VECTOR('',#777,10.);
#231=VECTOR('',#778,10.);
#232=VECTOR('',#783,10.);
#233=VECTOR('',#788,10.);
#234=VECTOR('',#789,10.);
#235=VECTOR('',#790,10.);
#236=VECTOR('',#795,10.);
#237=VECTOR('',#800,10.);
#238=VECTOR('',#801,10.);
#239=VECTOR('',#802,10.);
#240=VECTOR('',#807,10.);
#241=VECTOR('',#812,10.);
#242=VECTOR('',#813,10.);
#243=VECTOR('',#814,10.);
#244=VECTOR('',#823,10.);
#245=VECTOR('',#826,10.);
#246=VECTOR('',#829,10.);
#247=VECTOR('',#830,10.);
#248=VECTOR('',#833,10.);
#249=VECTOR('',#838,10.);
#250=VECTOR('',#839,10.);
#251=VECTOR('',#842,10.);
#252=VECTOR('',#847,10.);
#253=VECTOR('',#848,10.);
#254=VECTOR('',#851,10.);
#255=VECTOR('',#856,10.);
#256=VECTOR('',#861,10.);
#257=VECTOR('',#870,1.7);
#258=VECTOR('',#877,1.7);
#259=VECTOR('',#884,10.);
#260=VERTEX_POINT('',#891);
#261=VERTEX_POINT('',#892);
#262=VERTEX_POINT('',#894);
#263=VERTEX_POINT('',#896);
#264=VERTEX_POINT('',#898);
#265=VERTEX_POINT('',#900);
#266=VERTEX_POINT('',#902);
#267=VERTEX_POINT('',#904);
#268=VERTEX_POINT('',#906);
#269=VERTEX_POINT('',#908);
#270=VERTEX_POINT('',#913);
#271=VERTEX_POINT('',#915);
#272=VERTEX_POINT('',#919);
#273=VERTEX_POINT('',#921);
#274=VERTEX_POINT('',#924);
#275=VERTEX_POINT('',#927);
#276=VERTEX_POINT('',#930);
#277=VERTEX_POINT('',#934);
#278=VERTEX_POINT('',#938);
#279=VERTEX_POINT('',#942);
#280=VERTEX_POINT('',#948);
#281=VERTEX_POINT('',#949);
#282=VERTEX_POINT('',#951);
#283=VERTEX_POINT('',#953);
#284=VERTEX_POINT('',#955);
#285=VERTEX_POINT('',#957);
#286=VERTEX_POINT('',#961);
#287=VERTEX_POINT('',#963);
#288=VERTEX_POINT('',#967);
#289=VERTEX_POINT('',#969);
#290=VERTEX_POINT('',#973);
#291=VERTEX_POINT('',#975);
#292=VERTEX_POINT('',#979);
#293=VERTEX_POINT('',#980);
#294=VERTEX_POINT('',#985);
#295=VERTEX_POINT('',#987);
#296=VERTEX_POINT('',#991);
#297=VERTEX_POINT('',#992);
#298=VERTEX_POINT('',#997);
#299=VERTEX_POINT('',#999);
#300=VERTEX_POINT('',#1003);
#301=VERTEX_POINT('',#1004);
#302=VERTEX_POINT('',#1012);
#303=VERTEX_POINT('',#1014);
#304=VERTEX_POINT('',#1018);
#305=VERTEX_POINT('',#1022);
#306=VERTEX_POINT('',#1026);
#307=VERTEX_POINT('',#1030);
#308=VERTEX_POINT('',#1034);
#309=VERTEX_POINT('',#1038);
#310=VERTEX_POINT('',#1047);
#311=VERTEX_POINT('',#1049);
#312=VERTEX_POINT('',#1052);
#313=VERTEX_POINT('',#1057);
#314=EDGE_CURVE('',#260,#261,#154,.T.);
#315=EDGE_CURVE('',#262,#260,#124,.T.);
#316=EDGE_CURVE('',#263,#262,#155,.T.);
#317=EDGE_CURVE('',#264,#263,#125,.T.);
#318=EDGE_CURVE('',#265,#264,#156,.T.);
#319=EDGE_CURVE('',#266,#265,#126,.T.);
#320=EDGE_CURVE('',#267,#266,#157,.T.);
#321=EDGE_CURVE('',#268,#267,#127,.T.);
#322=EDGE_CURVE('',#268,#269,#158,.T.);
#323=EDGE_CURVE('',#269,#269,#128,.T.);
#324=EDGE_CURVE('',#261,#268,#129,.T.);
#325=EDGE_CURVE('',#270,#261,#159,.T.);
#326=EDGE_CURVE('',#270,#271,#160,.T.);
#327=EDGE_CURVE('',#271,#260,#161,.T.);
#328=EDGE_CURVE('',#267,#272,#162,.T.);
#329=EDGE_CURVE('',#272,#273,#130,.T.);
#330=EDGE_CURVE('',#273,#264,#163,.T.);
#331=EDGE_CURVE('',#263,#274,#164,.T.);
#332=EDGE_CURVE('',#274,#270,#131,.T.);
#333=EDGE_CURVE('',#275,#275,#132,.T.);
#334=EDGE_CURVE('',#266,#276,#165,.T.);
#335=EDGE_CURVE('',#272,#276,#166,.T.);
#336=EDGE_CURVE('',#275,#277,#167,.T.);
#337=EDGE_CURVE('',#277,#277,#133,.T.);
#338=EDGE_CURVE('',#278,#271,#134,.T.);
#339=EDGE_CURVE('',#262,#278,#168,.T.);
#340=EDGE_CURVE('',#279,#265,#169,.T.);
#341=EDGE_CURVE('',#276,#279,#135,.T.);
#342=EDGE_CURVE('',#273,#279,#170,.T.);
#343=EDGE_CURVE('',#280,#281,#19,.T.);
#344=EDGE_CURVE('',#282,#280,#171,.T.);
#345=EDGE_CURVE('',#283,#282,#136,.T.);
#346=EDGE_CURVE('',#283,#284,#172,.T.);
#347=EDGE_CURVE('',#285,#284,#20,.T.);
#348=EDGE_CURVE('',#281,#285,#137,.T.);
#349=EDGE_CURVE('',#281,#286,#173,.T.);
#350=EDGE_CURVE('',#287,#286,#174,.T.);
#351=EDGE_CURVE('',#287,#280,#175,.T.);
#352=EDGE_CURVE('',#284,#288,#176,.T.);
#353=EDGE_CURVE('',#288,#289,#177,.T.);
#354=EDGE_CURVE('',#289,#285,#178,.T.);
#355=EDGE_CURVE('',#288,#290,#138,.T.);
#356=EDGE_CURVE('',#290,#291,#179,.T.);
#357=EDGE_CURVE('',#291,#289,#139,.T.);
#358=EDGE_CURVE('',#292,#293,#180,.T.);
#359=EDGE_CURVE('',#293,#291,#181,.T.);
#360=EDGE_CURVE('',#290,#292,#182,.T.);
#361=EDGE_CURVE('',#292,#294,#140,.T.);
#362=EDGE_CURVE('',#294,#295,#183,.T.);
#363=EDGE_CURVE('',#295,#293,#141,.T.);
#364=EDGE_CURVE('',#296,#297,#184,.T.);
#365=EDGE_CURVE('',#297,#295,#185,.T.);
#366=EDGE_CURVE('',#294,#296,#186,.T.);
#367=EDGE_CURVE('',#296,#298,#142,.T.);
#368=EDGE_CURVE('',#298,#299,#187,.T.);
#369=EDGE_CURVE('',#299,#297,#143,.T.);
#370=EDGE_CURVE('',#300,#301,#188,.T.);
#371=EDGE_CURVE('',#301,#299,#189,.T.);
#372=EDGE_CURVE('',#298,#300,#190,.T.);
#373=EDGE_CURVE('',#300,#287,#144,.T.);
#374=EDGE_CURVE('',#286,#301,#145,.T.);
#375=EDGE_CURVE('',#300,#302,#191,.T.);
#376=EDGE_CURVE('',#302,#303,#146,.T.);
#377=EDGE_CURVE('',#303,#287,#192,.T.);
#378=EDGE_CURVE('',#304,#298,#193,.T.);
#379=EDGE_CURVE('',#304,#302,#194,.T.);
#380=EDGE_CURVE('',#296,#305,#195,.T.);
#381=EDGE_CURVE('',#305,#304,#147,.T.);
#382=EDGE_CURVE('',#306,#294,#196,.T.);
#383=EDGE_CURVE('',#306,#305,#197,.T.);
#384=EDGE_CURVE('',#292,#307,#198,.T.);
#385=EDGE_CURVE('',#307,#306,#148,.T.);
#386=EDGE_CURVE('',#308,#290,#199,.T.);
#387=EDGE_CURVE('',#308,#307,#200,.T.);
#388=EDGE_CURVE('',#288,#309,#201,.T.);
#389=EDGE_CURVE('',#309,#308,#149,.T.);
#390=EDGE_CURVE('',#309,#283,#202,.T.);
#391=EDGE_CURVE('',#282,#303,#203,.T.);
#392=EDGE_CURVE('',#310,#310,#150,.T.);
#393=EDGE_CURVE('',#311,#311,#151,.T.);
#394=EDGE_CURVE('',#310,#312,#204,.T.);
#395=EDGE_CURVE('',#312,#312,#152,.T.);
#396=EDGE_CURVE('',#311,#313,#205,.T.);
#397=EDGE_CURVE('',#313,#313,#153,.T.);
#398=EDGE_CURVE('',#274,#278,#206,.T.);
#399=ORIENTED_EDGE('',*,*,#314,.F.);
#400=ORIENTED_EDGE('',*,*,#315,.F.);
#401=ORIENTED_EDGE('',*,*,#316,.F.);
#402=ORIENTED_EDGE('',*,*,#317,.F.);
#403=ORIENTED_EDGE('',*,*,#318,.F.);
#404=ORIENTED_EDGE('',*,*,#319,.F.);
#405=ORIENTED_EDGE('',*,*,#320,.F.);
#406=ORIENTED_EDGE('',*,*,#321,.F.);
#407=ORIENTED_EDGE('',*,*,#322,.T.);
#408=ORIENTED_EDGE('',*,*,#323,.T.);
#409=ORIENTED_EDGE('',*,*,#322,.F.);
#410=ORIENTED_EDGE('',*,*,#324,.F.);
#411=ORIENTED_EDGE('',*,*,#314,.T.);
#412=ORIENTED_EDGE('',*,*,#325,.F.);
#413=ORIENTED_EDGE('',*,*,#326,.T.);
#414=ORIENTED_EDGE('',*,*,#327,.T.);
#415=ORIENTED_EDGE('',*,*,#324,.T.);
#416=ORIENTED_EDGE('',*,*,#321,.T.);
#417=ORIENTED_EDGE('',*,*,#328,.T.);
#418=ORIENTED_EDGE('',*,*,#329,.T.);
#419=ORIENTED_EDGE('',*,*,#330,.T.);
#420=ORIENTED_EDGE('',*,*,#317,.T.);
#421=ORIENTED_EDGE('',*,*,#331,.T.);
#422=ORIENTED_EDGE('',*,*,#332,.T.);
#423=ORIENTED_EDGE('',*,*,#325,.T.);
#424=ORIENTED_EDGE('',*,*,#333,.T.);
#425=ORIENTED_EDGE('',*,*,#320,.T.);
#426=ORIENTED_EDGE('',*,*,#334,.T.);
#427=ORIENTED_EDGE('',*,*,#335,.F.);
#428=ORIENTED_EDGE('',*,*,#328,.F.);
#429=ORIENTED_EDGE('',*,*,#333,.F.);
#430=ORIENTED_EDGE('',*,*,#336,.T.);
#431=ORIENTED_EDGE('',*,*,#337,.F.);
#432=ORIENTED_EDGE('',*,*,#336,.F.);
#433=ORIENTED_EDGE('',*,*,#315,.T.);
#434=ORIENTED_EDGE('',*,*,#327,.F.);
#435=ORIENTED_EDGE('',*,*,#338,.F.);
#436=ORIENTED_EDGE('',*,*,#339,.F.);
#437=ORIENTED_EDGE('',*,*,#319,.T.);
#438=ORIENTED_EDGE('',*,*,#340,.F.);
#439=ORIENTED_EDGE('',*,*,#341,.F.);
#440=ORIENTED_EDGE('',*,*,#334,.F.);
#441=ORIENTED_EDGE('',*,*,#318,.T.);
#442=ORIENTED_EDGE('',*,*,#330,.F.);
#443=ORIENTED_EDGE('',*,*,#342,.T.);
#444=ORIENTED_EDGE('',*,*,#340,.T.);
#445=ORIENTED_EDGE('',*,*,#343,.F.);
#446=ORIENTED_EDGE('',*,*,#344,.F.);
#447=ORIENTED_EDGE('',*,*,#345,.F.);
#448=ORIENTED_EDGE('',*,*,#346,.T.);
#449=ORIENTED_EDGE('',*,*,#347,.F.);
#450=ORIENTED_EDGE('',*,*,#348,.F.);
#451=ORIENTED_EDGE('',*,*,#343,.T.);
#452=ORIENTED_EDGE('',*,*,#349,.T.);
#453=ORIENTED_EDGE('',*,*,#350,.F.);
#454=ORIENTED_EDGE('',*,*,#351,.T.);
#455=ORIENTED_EDGE('',*,*,#347,.T.);
#456=ORIENTED_EDGE('',*,*,#352,.T.);
#457=ORIENTED_EDGE('',*,*,#353,.T.);
#458=ORIENTED_EDGE('',*,*,#354,.T.);
#459=ORIENTED_EDGE('',*,*,#353,.F.);
#460=ORIENTED_EDGE('',*,*,#355,.T.);
#461=ORIENTED_EDGE('',*,*,#356,.T.);
#462=ORIENTED_EDGE('',*,*,#357,.T.);
#463=ORIENTED_EDGE('',*,*,#358,.T.);
#464=ORIENTED_EDGE('',*,*,#359,.T.);
#465=ORIENTED_EDGE('',*,*,#356,.F.);
#466=ORIENTED_EDGE('',*,*,#360,.T.);
#467=ORIENTED_EDGE('',*,*,#358,.F.);
#468=ORIENTED_EDGE('',*,*,#361,.T.);
#469=ORIENTED_EDGE('',*,*,#362,.T.);
#470=ORIENTED_EDGE('',*,*,#363,.T.);
#471=ORIENTED_EDGE('',*,*,#364,.T.);
#472=ORIENTED_EDGE('',*,*,#365,.T.);
#473=ORIENTED_EDGE('',*,*,#362,.F.);
#474=ORIENTED_EDGE('',*,*,#366,.T.);
#475=ORIENTED_EDGE('',*,*,#364,.F.);
#476=ORIENTED_EDGE('',*,*,#367,.T.);
#477=ORIENTED_EDGE('',*,*,#368,.T.);
#478=ORIENTED_EDGE('',*,*,#369,.T.);
#479=ORIENTED_EDGE('',*,*,#370,.T.);
#480=ORIENTED_EDGE('',*,*,#371,.T.);
#481=ORIENTED_EDGE('',*,*,#368,.F.);
#482=ORIENTED_EDGE('',*,*,#372,.T.);
#483=ORIENTED_EDGE('',*,*,#370,.F.);
#484=ORIENTED_EDGE('',*,*,#373,.T.);
#485=ORIENTED_EDGE('',*,*,#350,.T.);
#486=ORIENTED_EDGE('',*,*,#374,.T.);
#487=ORIENTED_EDGE('',*,*,#373,.F.);
#488=ORIENTED_EDGE('',*,*,#375,.T.);
#489=ORIENTED_EDGE('',*,*,#376,.T.);
#490=ORIENTED_EDGE('',*,*,#377,.T.);
#491=ORIENTED_EDGE('',*,*,#372,.F.);
#492=ORIENTED_EDGE('',*,*,#378,.F.);
#493=ORIENTED_EDGE('',*,*,#379,.T.);
#494=ORIENTED_EDGE('',*,*,#375,.F.);
#495=ORIENTED_EDGE('',*,*,#367,.F.);
#496=ORIENTED_EDGE('',*,*,#380,.T.);
#497=ORIENTED_EDGE('',*,*,#381,.T.);
#498=ORIENTED_EDGE('',*,*,#378,.T.);
#499=ORIENTED_EDGE('',*,*,#366,.F.);
#500=ORIENTED_EDGE('',*,*,#382,.F.);
#501=ORIENTED_EDGE('',*,*,#383,.T.);
#502=ORIENTED_EDGE('',*,*,#380,.F.);
#503=ORIENTED_EDGE('',*,*,#361,.F.);
#504=ORIENTED_EDGE('',*,*,#384,.T.);
#505=ORIENTED_EDGE('',*,*,#385,.T.);
#506=ORIENTED_EDGE('',*,*,#382,.T.);
#507=ORIENTED_EDGE('',*,*,#360,.F.);
#508=ORIENTED_EDGE('',*,*,#386,.F.);
#509=ORIENTED_EDGE('',*,*,#387,.T.);
#510=ORIENTED_EDGE('',*,*,#384,.F.);
#511=ORIENTED_EDGE('',*,*,#355,.F.);
#512=ORIENTED_EDGE('',*,*,#388,.T.);
#513=ORIENTED_EDGE('',*,*,#389,.T.);
#514=ORIENTED_EDGE('',*,*,#386,.T.);
#515=ORIENTED_EDGE('',*,*,#352,.F.);
#516=ORIENTED_EDGE('',*,*,#346,.F.);
#517=ORIENTED_EDGE('',*,*,#390,.F.);
#518=ORIENTED_EDGE('',*,*,#388,.F.);
#519=ORIENTED_EDGE('',*,*,#348,.T.);
#520=ORIENTED_EDGE('',*,*,#354,.F.);
#521=ORIENTED_EDGE('',*,*,#357,.F.);
#522=ORIENTED_EDGE('',*,*,#359,.F.);
#523=ORIENTED_EDGE('',*,*,#363,.F.);
#524=ORIENTED_EDGE('',*,*,#365,.F.);
#525=ORIENTED_EDGE('',*,*,#369,.F.);
#526=ORIENTED_EDGE('',*,*,#371,.F.);
#527=ORIENTED_EDGE('',*,*,#374,.F.);
#528=ORIENTED_EDGE('',*,*,#349,.F.);
#529=ORIENTED_EDGE('',*,*,#323,.F.);
#530=ORIENTED_EDGE('',*,*,#351,.F.);
#531=ORIENTED_EDGE('',*,*,#377,.F.);
#532=ORIENTED_EDGE('',*,*,#391,.F.);
#533=ORIENTED_EDGE('',*,*,#344,.T.);
#534=ORIENTED_EDGE('',*,*,#389,.F.);
#535=ORIENTED_EDGE('',*,*,#390,.T.);
#536=ORIENTED_EDGE('',*,*,#345,.T.);
#537=ORIENTED_EDGE('',*,*,#391,.T.);
#538=ORIENTED_EDGE('',*,*,#376,.F.);
#539=ORIENTED_EDGE('',*,*,#379,.F.);
#540=ORIENTED_EDGE('',*,*,#381,.F.);
#541=ORIENTED_EDGE('',*,*,#383,.F.);
#542=ORIENTED_EDGE('',*,*,#385,.F.);
#543=ORIENTED_EDGE('',*,*,#387,.F.);
#544=ORIENTED_EDGE('',*,*,#337,.T.);
#545=ORIENTED_EDGE('',*,*,#392,.T.);
#546=ORIENTED_EDGE('',*,*,#393,.T.);
#547=ORIENTED_EDGE('',*,*,#392,.F.);
#548=ORIENTED_EDGE('',*,*,#394,.T.);
#549=ORIENTED_EDGE('',*,*,#395,.T.);
#550=ORIENTED_EDGE('',*,*,#394,.F.);
#551=ORIENTED_EDGE('',*,*,#395,.F.);
#552=ORIENTED_EDGE('',*,*,#393,.F.);
#553=ORIENTED_EDGE('',*,*,#396,.T.);
#554=ORIENTED_EDGE('',*,*,#397,.T.);
#555=ORIENTED_EDGE('',*,*,#396,.F.);
#556=ORIENTED_EDGE('',*,*,#397,.F.);
#557=ORIENTED_EDGE('',*,*,#338,.T.);
#558=ORIENTED_EDGE('',*,*,#326,.F.);
#559=ORIENTED_EDGE('',*,*,#332,.F.);
#560=ORIENTED_EDGE('',*,*,#398,.T.);
#561=ORIENTED_EDGE('',*,*,#316,.T.);
#562=ORIENTED_EDGE('',*,*,#339,.T.);
#563=ORIENTED_EDGE('',*,*,#398,.F.);
#564=ORIENTED_EDGE('',*,*,#331,.F.);
#565=ORIENTED_EDGE('',*,*,#341,.T.);
#566=ORIENTED_EDGE('',*,*,#342,.F.);
#567=ORIENTED_EDGE('',*,*,#329,.F.);
#568=ORIENTED_EDGE('',*,*,#335,.T.);
#569=CYLINDRICAL_SURFACE('',#630,17.6);
#570=CYLINDRICAL_SURFACE('',#643,16.15);
#571=CYLINDRICAL_SURFACE('',#650,263.499999999999);
#572=CYLINDRICAL_SURFACE('',#672,3.);
#573=CYLINDRICAL_SURFACE('',#675,3.);
#574=CYLINDRICAL_SURFACE('',#678,3.);
#575=CYLINDRICAL_SURFACE('',#681,3.);
#576=CYLINDRICAL_SURFACE('',#689,1.7);
#577=CYLINDRICAL_SURFACE('',#692,1.7);
#578=CYLINDRICAL_SURFACE('',#695,0.400000000000004);
#579=CYLINDRICAL_SURFACE('',#697,0.399999999999995);
#580=ADVANCED_FACE('',(#47),#569,.F.);
#581=ADVANCED_FACE('',(#48),#26,.T.);
#582=ADVANCED_FACE('',(#49,#21),#27,.T.);
#583=ADVANCED_FACE('',(#50),#28,.T.);
#584=ADVANCED_FACE('',(#51),#570,.F.);
#585=ADVANCED_FACE('',(#52),#29,.T.);
#586=ADVANCED_FACE('',(#53),#30,.T.);
#587=ADVANCED_FACE('',(#54),#31,.T.);
#588=ADVANCED_FACE('',(#55),#571,.F.);
#589=ADVANCED_FACE('',(#56),#32,.T.);
#590=ADVANCED_FACE('',(#57),#33,.T.);
#591=ADVANCED_FACE('',(#58),#15,.T.);
#592=ADVANCED_FACE('',(#59),#34,.T.);
#593=ADVANCED_FACE('',(#60),#16,.T.);
#594=ADVANCED_FACE('',(#61),#35,.T.);
#595=ADVANCED_FACE('',(#62),#17,.T.);
#596=ADVANCED_FACE('',(#63),#36,.T.);
#597=ADVANCED_FACE('',(#64),#18,.T.);
#598=ADVANCED_FACE('',(#65),#572,.T.);
#599=ADVANCED_FACE('',(#66),#37,.T.);
#600=ADVANCED_FACE('',(#67),#573,.T.);
#601=ADVANCED_FACE('',(#68),#38,.T.);
#602=ADVANCED_FACE('',(#69),#574,.T.);
#603=ADVANCED_FACE('',(#70),#39,.T.);
#604=ADVANCED_FACE('',(#71),#575,.T.);
#605=ADVANCED_FACE('',(#72),#40,.T.);
#606=ADVANCED_FACE('',(#73,#22),#41,.T.);
#607=ADVANCED_FACE('',(#74),#42,.T.);
#608=ADVANCED_FACE('',(#75,#23,#24,#25),#43,.F.);
#609=ADVANCED_FACE('',(#76),#576,.F.);
#610=ADVANCED_FACE('',(#77),#44,.F.);
#611=ADVANCED_FACE('',(#78),#577,.F.);
#612=ADVANCED_FACE('',(#79),#45,.F.);
#613=ADVANCED_FACE('',(#80),#578,.T.);
#614=ADVANCED_FACE('',(#81),#46,.T.);
#615=ADVANCED_FACE('',(#82),#579,.T.);
#616=CLOSED_SHELL('',(#580,#581,#582,#583,#584,#585,#586,#587,#588,#589,
#590,#591,#592,#593,#594,#595,#596,#597,#598,#599,#600,#601,#602,#603,#604,
#605,#606,#607,#608,#609,#610,#611,#612,#613,#614,#615));
#617=DERIVED_UNIT_ELEMENT(#619,1.);
#618=DERIVED_UNIT_ELEMENT(#1070,-3.);
#619=(
MASS_UNIT()
NAMED_UNIT(*)
SI_UNIT(.KILO.,.GRAM.)
);
#620=DERIVED_UNIT((#617,#618));
#621=MEASURE_REPRESENTATION_ITEM('density measure',
POSITIVE_RATIO_MEASURE(7850.),#620);
#622=PROPERTY_DEFINITION_REPRESENTATION(#627,#624);
#623=PROPERTY_DEFINITION_REPRESENTATION(#628,#625);
#624=REPRESENTATION('material name',(#626),#1067);
#625=REPRESENTATION('density',(#621),#1067);
#626=DESCRIPTIVE_REPRESENTATION_ITEM('Steel','Steel');
#627=PROPERTY_DEFINITION('material property','material name',#1077);
#628=PROPERTY_DEFINITION('material property','density of part',#1077);
#629=AXIS2_PLACEMENT_3D('',#889,#698,#699);
#630=AXIS2_PLACEMENT_3D('',#890,#700,#701);
#631=AXIS2_PLACEMENT_3D('',#895,#703,#704);
#632=AXIS2_PLACEMENT_3D('',#899,#706,#707);
#633=AXIS2_PLACEMENT_3D('',#903,#709,#710);
#634=AXIS2_PLACEMENT_3D('',#907,#712,#713);
#635=AXIS2_PLACEMENT_3D('',#910,#715,#716);
#636=AXIS2_PLACEMENT_3D('',#911,#717,#718);
#637=AXIS2_PLACEMENT_3D('',#912,#719,#720);
#638=AXIS2_PLACEMENT_3D('',#918,#724,#725);
#639=AXIS2_PLACEMENT_3D('',#922,#727,#728);
#640=AXIS2_PLACEMENT_3D('',#926,#731,#732);
#641=AXIS2_PLACEMENT_3D('',#928,#733,#734);
#642=AXIS2_PLACEMENT_3D('',#929,#735,#736);
#643=AXIS2_PLACEMENT_3D('',#933,#739,#740);
#644=AXIS2_PLACEMENT_3D('',#936,#742,#743);
#645=AXIS2_PLACEMENT_3D('',#937,#744,#745);
#646=AXIS2_PLACEMENT_3D('',#939,#746,#747);
#647=AXIS2_PLACEMENT_3D('',#941,#749,#750);
#648=AXIS2_PLACEMENT_3D('',#944,#752,#753);
#649=AXIS2_PLACEMENT_3D('',#945,#754,#755);
#650=AXIS2_PLACEMENT_3D('',#947,#757,#758);
#651=AXIS2_PLACEMENT_3D('',#950,#759,#760);
#652=AXIS2_PLACEMENT_3D('',#954,#762,#763);
#653=AXIS2_PLACEMENT_3D('',#958,#765,#766);
#654=AXIS2_PLACEMENT_3D('',#959,#767,#768);
#655=AXIS2_PLACEMENT_3D('',#960,#769,#770);
#656=AXIS2_PLACEMENT_3D('',#966,#774,#775);
#657=AXIS2_PLACEMENT_3D('',#972,#779,#780);
#658=AXIS2_PLACEMENT_3D('',#974,#781,#782);
#659=AXIS2_PLACEMENT_3D('',#977,#784,#785);
#660=AXIS2_PLACEMENT_3D('',#978,#786,#787);
#661=AXIS2_PLACEMENT_3D('',#984,#791,#792);
#662=AXIS2_PLACEMENT_3D('',#986,#793,#794);
#663=AXIS2_PLACEMENT_3D('',#989,#796,#797);
#664=AXIS2_PLACEMENT_3D('',#990,#798,#799);
#665=AXIS2_PLACEMENT_3D('',#996,#803,#804);
#666=AXIS2_PLACEMENT_3D('',#998,#805,#806);
#667=AXIS2_PLACEMENT_3D('',#1001,#808,#809);
#668=AXIS2_PLACEMENT_3D('',#1002,#810,#811);
#669=AXIS2_PLACEMENT_3D('',#1008,#815,#816);
#670=AXIS2_PLACEMENT_3D('',#1009,#817,#818);
#671=AXIS2_PLACEMENT_3D('',#1010,#819,#820);
#672=AXIS2_PLACEMENT_3D('',#1011,#821,#822);
#673=AXIS2_PLACEMENT_3D('',#1015,#824,#825);
#674=AXIS2_PLACEMENT_3D('',#1017,#827,#828);
#675=AXIS2_PLACEMENT_3D('',#1021,#831,#832);
#676=AXIS2_PLACEMENT_3D('',#1024,#834,#835);
#677=AXIS2_PLACEMENT_3D('',#1025,#836,#837);
#678=AXIS2_PLACEMENT_3D('',#1029,#840,#841);
#679=AXIS2_PLACEMENT_3D('',#1032,#843,#844);
#680=AXIS2_PLACEMENT_3D('',#1033,#845,#846);
#681=AXIS2_PLACEMENT_3D('',#1037,#849,#850);
#682=AXIS2_PLACEMENT_3D('',#1040,#852,#853);
#683=AXIS2_PLACEMENT_3D('',#1041,#854,#855);
#684=AXIS2_PLACEMENT_3D('',#1043,#857,#858);
#685=AXIS2_PLACEMENT_3D('',#1044,#859,#860);
#686=AXIS2_PLACEMENT_3D('',#1046,#862,#863);
#687=AXIS2_PLACEMENT_3D('',#1048,#864,#865);
#688=AXIS2_PLACEMENT_3D('',#1050,#866,#867);
#689=AXIS2_PLACEMENT_3D('',#1051,#868,#869);
#690=AXIS2_PLACEMENT_3D('',#1054,#871,#872);
#691=AXIS2_PLACEMENT_3D('',#1055,#873,#874);
#692=AXIS2_PLACEMENT_3D('',#1056,#875,#876);
#693=AXIS2_PLACEMENT_3D('',#1059,#878,#879);
#694=AXIS2_PLACEMENT_3D('',#1060,#880,#881);
#695=AXIS2_PLACEMENT_3D('',#1061,#882,#883);
#696=AXIS2_PLACEMENT_3D('',#1063,#885,#886);
#697=AXIS2_PLACEMENT_3D('',#1064,#887,#888);
#698=DIRECTION('axis',(0.,0.,1.));
#699=DIRECTION('refdir',(1.,0.,0.));
#700=DIRECTION('center_axis',(0.,0.,-1.));
#701=DIRECTION('ref_axis',(1.,0.,0.));
#702=DIRECTION('',(0.,0.,-1.));
#703=DIRECTION('center_axis',(0.,0.,1.));
#704=DIRECTION('ref_axis',(1.,0.,0.));
#705=DIRECTION('',(0.,0.,1.));
#706=DIRECTION('center_axis',(0.,0.,1.));
#707=DIRECTION('ref_axis',(1.,0.,0.));
#708=DIRECTION('',(0.,0.,-1.));
#709=DIRECTION('center_axis',(0.,0.,1.));
#710=DIRECTION('ref_axis',(1.,0.,0.));
#711=DIRECTION('',(0.,0.,1.));
#712=DIRECTION('center_axis',(0.,0.,1.));
#713=DIRECTION('ref_axis',(1.,0.,0.));
#714=DIRECTION('',(0.,0.,1.));
#715=DIRECTION('center_axis',(0.,0.,1.));
#716=DIRECTION('ref_axis',(1.,0.,0.));
#717=DIRECTION('center_axis',(0.,0.,1.));
#718=DIRECTION('ref_axis',(1.,0.,0.));
#719=DIRECTION('center_axis',(-0.843391414021507,-0.53729965824929,0.));
#720=DIRECTION('ref_axis',(0.53729965824929,-0.843391414021507,0.));
#721=DIRECTION('',(-0.537299658249289,0.843391414021507,0.));
#722=DIRECTION('',(0.,0.,1.));
#723=DIRECTION('',(-0.53729965824929,0.843391414021507,0.));
#724=DIRECTION('center_axis',(0.,0.,1.));
#725=DIRECTION('ref_axis',(1.,0.,0.));
#726=DIRECTION('',(-0.707106796288978,0.707106766084116,0.));
#727=DIRECTION('center_axis',(0.,0.,-1.));
#728=DIRECTION('ref_axis',(0.707106781186536,0.707106781186559,0.));
#729=DIRECTION('',(0.7071067660841,-0.707106796288995,0.));
#730=DIRECTION('',(0.537299597623485,-0.843391452644406,0.));
#731=DIRECTION('center_axis',(0.,0.,-1.));
#732=DIRECTION('ref_axis',(-0.843771123466956,-0.536703168616798,0.));
#733=DIRECTION('center_axis',(0.,0.,-1.));
#734=DIRECTION('ref_axis',(1.,0.,0.));
#735=DIRECTION('center_axis',(-0.707106766084116,-0.707106796288978,0.));
#736=DIRECTION('ref_axis',(0.707106796288978,-0.707106766084116,0.));
#737=DIRECTION('',(-0.707106796288978,0.707106766084116,0.));
#738=DIRECTION('',(0.,0.,1.));
#739=DIRECTION('center_axis',(0.,0.,-1.));
#740=DIRECTION('ref_axis',(1.,0.,0.));
#741=DIRECTION('',(0.,0.,-1.));
#742=DIRECTION('center_axis',(0.,0.,1.));
#743=DIRECTION('ref_axis',(1.,0.,0.));
#744=DIRECTION('center_axis',(0.,0.,1.));
#745=DIRECTION('ref_axis',(1.,0.,0.));
#746=DIRECTION('center_axis',(0.,0.,-1.));
#747=DIRECTION('ref_axis',(0.537001460317903,-0.843581312984373,0.));
#748=DIRECTION('',(0.537299597623485,-0.843391452644406,0.));
#749=DIRECTION('center_axis',(0.,0.,1.));
#750=DIRECTION('ref_axis',(1.,0.,0.));
#751=DIRECTION('',(0.7071067660841,-0.707106796288995,0.));
#752=DIRECTION('center_axis',(0.,0.,-1.));
#753=DIRECTION('ref_axis',(0.707106781186536,0.707106781186559,0.));
#754=DIRECTION('center_axis',(0.707106796288995,0.7071067660841,0.));
#755=DIRECTION('ref_axis',(-0.7071067660841,0.707106796288995,0.));
#756=DIRECTION('',(0.,0.,1.));
#757=DIRECTION('center_axis',(0.,0.,1.));
#758=DIRECTION('ref_axis',(-0.165583304631702,-0.986195806737812,0.));
#759=DIRECTION('center_axis',(-0.683012702397254,-0.183012700007385,-0.707106781186553));
#760=DIRECTION('ref_axis',(-0.683012702397264,-0.183012700007388,0.707106781186542));
#761=DIRECTION('',(0.,0.,1.));
#762=DIRECTION('center_axis',(0.,0.,1.));
#763=DIRECTION('ref_axis',(-0.165583304631702,-0.986195806737812,0.));
#764=DIRECTION('',(0.,0.,1.));
#765=DIRECTION('center_axis',(0.68301270239725,-0.183012700007409,-0.70710678118655));
#766=DIRECTION('ref_axis',(0.683012702397255,-0.183012700007411,0.707106781186545));
#767=DIRECTION('center_axis',(0.,0.,-1.));
#768=DIRECTION('ref_axis',(-0.165583304631702,-0.986195806737812,0.));
#769=DIRECTION('center_axis',(0.683012702397254,0.183012700007385,0.707106781186553));
#770=DIRECTION('ref_axis',(0.719254596419705,-6.40341867202643E-17,-0.69474659087262));
#771=DIRECTION('',(0.258819042436964,-0.965925827003302,0.));
#772=DIRECTION('',(-0.683012702397265,-0.183012700007382,0.707106781186543));
#773=DIRECTION('',(-0.258819042436964,0.965925827003302,0.));
#774=DIRECTION('center_axis',(-0.68301270239725,0.183012700007409,0.70710678118655));
#775=DIRECTION('ref_axis',(0.719254596419706,4.21888588101938E-17,0.694746590872619));
#776=DIRECTION('',(-0.258819042436998,-0.965925827003293,0.));
#777=DIRECTION('',(0.683012702397254,-0.183012700007414,0.707106781186545));
#778=DIRECTION('',(0.258819042436998,0.965925827003293,0.));
#779=DIRECTION('center_axis',(0.,0.,-1.));
#780=DIRECTION('ref_axis',(-0.923879532754718,-0.382683431777396,0.));
#781=DIRECTION('center_axis',(0.,0.,1.));
#782=DIRECTION('ref_axis',(-0.923879532754718,-0.382683431777396,0.));
#783=DIRECTION('',(0.35355339306223,0.612372434270342,0.707106781186548));
#784=DIRECTION('center_axis',(0.,0.,-1.));
#785=DIRECTION('ref_axis',(-0.923879532754718,-0.382683431777396,0.));
#786=DIRECTION('center_axis',(-0.353553393062227,-0.612372434270344,0.707106781186547));
#787=DIRECTION('ref_axis',(0.894427189750713,-2.04032057546339E-17,0.447213597998363));
#788=DIRECTION('',(0.35355339306223,0.612372434270342,0.707106781186548));
#789=DIRECTION('',(-0.866025401768547,0.500000003491627,0.));
#790=DIRECTION('',(0.866025401768547,-0.500000003491627,0.));
#791=DIRECTION('center_axis',(0.,0.,-1.));
#792=DIRECTION('ref_axis',(-0.258819047049723,-0.965925825767317,0.));
#793=DIRECTION('center_axis',(0.,0.,1.));
#794=DIRECTION('ref_axis',(-0.258819047049723,-0.965925825767317,0.));
#795=DIRECTION('',(0.,0.707106781186546,0.707106781186549));
#796=DIRECTION('center_axis',(0.,0.,-1.));
#797=DIRECTION('ref_axis',(-0.258819047049723,-0.965925825767317,0.));
#798=DIRECTION('center_axis',(0.,-0.707106781186549,0.707106781186546));
#799=DIRECTION('ref_axis',(1.,0.,0.));
#800=DIRECTION('',(0.,0.707106781186546,0.707106781186549));
#801=DIRECTION('',(-1.,0.,0.));
#802=DIRECTION('',(1.,0.,0.));
#803=DIRECTION('center_axis',(0.,0.,-1.));
#804=DIRECTION('ref_axis',(0.258819047049742,-0.965925825767312,0.));
#805=DIRECTION('center_axis',(0.,0.,1.));
#806=DIRECTION('ref_axis',(0.258819047049742,-0.965925825767312,0.));
#807=DIRECTION('',(-0.353553393062254,0.612372434270332,0.707106781186544));
#808=DIRECTION('center_axis',(0.,0.,-1.));
#809=DIRECTION('ref_axis',(0.258819047049742,-0.965925825767312,0.));
#810=DIRECTION('center_axis',(0.353553393062255,-0.612372434270327,0.707106781186548));
#811=DIRECTION('ref_axis',(0.894427189750699,-7.56655252093198E-17,-0.447213597998391));
#812=DIRECTION('',(-0.353553393062244,0.612372434270331,0.70710678118655));
#813=DIRECTION('',(-0.866025401768524,-0.500000003491667,0.));
#814=DIRECTION('',(0.866025401768524,0.500000003491667,0.));
#815=DIRECTION('center_axis',(0.,0.,-1.));
#816=DIRECTION('ref_axis',(0.923879532754718,-0.382683431777394,0.));
#817=DIRECTION('center_axis',(0.,0.,1.));
#818=DIRECTION('ref_axis',(0.923879532754718,-0.382683431777394,0.));
#819=DIRECTION('center_axis',(0.,0.,-1.));
#820=DIRECTION('ref_axis',(0.923879532754718,-0.382683431777394,0.));
#821=DIRECTION('center_axis',(0.,0.,-1.));
#822=DIRECTION('ref_axis',(0.923879532754718,-0.382683431777394,0.));
#823=DIRECTION('',(0.,0.,-1.));
#824=DIRECTION('center_axis',(0.,0.,1.));
#825=DIRECTION('ref_axis',(0.923879532754718,-0.382683431777394,0.));
#826=DIRECTION('',(0.,0.,1.));
#827=DIRECTION('center_axis',(0.500000003491667,-0.866025401768524,0.));
#828=DIRECTION('ref_axis',(0.866025401768524,0.500000003491667,0.));
#829=DIRECTION('',(0.,0.,1.));
#830=DIRECTION('',(0.866025401768524,0.500000003491667,0.));
#831=DIRECTION('center_axis',(0.,0.,-1.));
#832=DIRECTION('ref_axis',(0.258819047049742,-0.965925825767312,0.));
#833=DIRECTION('',(0.,0.,-1.));
#834=DIRECTION('center_axis',(0.,0.,1.));
#835=DIRECTION('ref_axis',(0.258819047049742,-0.965925825767312,0.));
#836=DIRECTION('center_axis',(0.,-1.,0.));
#837=DIRECTION('ref_axis',(1.,0.,0.));
#838=DIRECTION('',(0.,0.,1.));
#839=DIRECTION('',(1.,0.,0.));
#840=DIRECTION('center_axis',(0.,0.,1.));
#841=DIRECTION('ref_axis',(-0.258819047049723,-0.965925825767317,0.));
#842=DIRECTION('',(0.,0.,-1.));
#843=DIRECTION('center_axis',(0.,0.,1.));
#844=DIRECTION('ref_axis',(-0.258819047049723,-0.965925825767317,0.));
#845=DIRECTION('center_axis',(-0.500000003491627,-0.866025401768547,0.));
#846=DIRECTION('ref_axis',(0.866025401768547,-0.500000003491627,0.));
#847=DIRECTION('',(0.,0.,1.));
#848=DIRECTION('',(0.866025401768547,-0.500000003491627,0.));
#849=DIRECTION('center_axis',(0.,0.,-1.));
#850=DIRECTION('ref_axis',(-0.923879532754718,-0.382683431777396,0.));
#851=DIRECTION('',(0.,0.,-1.));
#852=DIRECTION('center_axis',(0.,0.,1.));
#853=DIRECTION('ref_axis',(-0.923879532754718,-0.382683431777396,0.));
#854=DIRECTION('center_axis',(-0.965925827003293,0.258819042436998,0.));
#855=DIRECTION('ref_axis',(-0.258819042436998,-0.965925827003293,0.));
#856=DIRECTION('',(0.258819042436998,0.965925827003293,0.));
#857=DIRECTION('center_axis',(0.,0.,1.));
#858=DIRECTION('ref_axis',(1.,0.,0.));
#859=DIRECTION('center_axis',(0.965925827003302,0.258819042436964,0.));
#860=DIRECTION('ref_axis',(-0.258819042436964,0.965925827003302,0.));
#861=DIRECTION('',(0.258819042436964,-0.965925827003302,0.));
#862=DIRECTION('center_axis',(0.,0.,1.));
#863=DIRECTION('ref_axis',(1.,0.,0.));
#864=DIRECTION('center_axis',(0.,0.,1.));
#865=DIRECTION('ref_axis',(1.,0.,0.));
#866=DIRECTION('center_axis',(0.,0.,1.));
#867=DIRECTION('ref_axis',(1.,0.,0.));
#868=DIRECTION('center_axis',(0.,0.,1.));
#869=DIRECTION('ref_axis',(1.,0.,0.));
#870=DIRECTION('',(0.,0.,1.));
#871=DIRECTION('center_axis',(0.,0.,1.));
#872=DIRECTION('ref_axis',(1.,0.,0.));
#873=DIRECTION('center_axis',(0.,0.,1.));
#874=DIRECTION('ref_axis',(1.,0.,0.));
#875=DIRECTION('center_axis',(0.,0.,1.));
#876=DIRECTION('ref_axis',(1.,0.,0.));
#877=DIRECTION('',(0.,0.,1.));
#878=DIRECTION('center_axis',(0.,0.,1.));
#879=DIRECTION('ref_axis',(1.,0.,0.));
#880=DIRECTION('center_axis',(0.,0.,1.));
#881=DIRECTION('ref_axis',(1.,0.,0.));
#882=DIRECTION('center_axis',(0.,0.,1.));
#883=DIRECTION('ref_axis',(0.537001460317903,-0.843581312984373,0.));
#884=DIRECTION('',(0.,0.,1.));
#885=DIRECTION('center_axis',(0.843391452644406,0.537299597623485,0.));
#886=DIRECTION('ref_axis',(-0.537299597623485,0.843391452644406,0.));
#887=DIRECTION('center_axis',(0.,0.,1.));
#888=DIRECTION('ref_axis',(0.707106781186536,0.707106781186559,0.));
#889=CARTESIAN_POINT('',(0.,0.,0.));
#890=CARTESIAN_POINT('Origin',(139.0646356,64.8451793,12.8));
#891=CARTESIAN_POINT('',(129.273248593834,79.4701148723531,12.));
#892=CARTESIAN_POINT('',(129.273248593834,79.4701148723531,11.2));
#893=CARTESIAN_POINT('',(129.273248593834,79.4701148723531,12.8));
#894=CARTESIAN_POINT('',(129.947961704273,79.8999545251229,12.));
#895=CARTESIAN_POINT('Origin',(139.0646356,64.8451793,12.));
#896=CARTESIAN_POINT('',(129.947961704273,79.899954525123,11.2));
#897=CARTESIAN_POINT('',(129.947961704273,79.899954525123,12.8));
#898=CARTESIAN_POINT('',(151.789343115683,52.6861571912807,11.2));
#899=CARTESIAN_POINT('Origin',(139.0646356,64.8451793,11.2));
#900=CARTESIAN_POINT('',(151.789343115683,52.6861571912807,12.));
#901=CARTESIAN_POINT('',(151.789343115683,52.6861571912807,12.8));
#902=CARTESIAN_POINT('',(151.223657708719,52.1204717843169,12.));
#903=CARTESIAN_POINT('Origin',(139.0646356,64.8451793,12.));
#904=CARTESIAN_POINT('',(151.223657708719,52.120471784317,11.2));
#905=CARTESIAN_POINT('',(151.223657708719,52.120471784317,12.8));
#906=CARTESIAN_POINT('',(121.4646356,64.8451793,11.2));
#907=CARTESIAN_POINT('Origin',(139.0646356,64.8451793,11.2));
#908=CARTESIAN_POINT('',(121.4646356,64.8451793,12.8));
#909=CARTESIAN_POINT('',(121.4646356,64.8451793,12.8));
#910=CARTESIAN_POINT('Origin',(139.0646356,64.8451793,12.8));
#911=CARTESIAN_POINT('Origin',(139.0646356,64.8451793,11.2));
#912=CARTESIAN_POINT('Origin',(129.1493763,79.6645554,3.6));
#913=CARTESIAN_POINT('',(129.593033850613,78.9681526325533,11.2));
#914=CARTESIAN_POINT('',(133.938328153234,72.1474077279908,11.2));
#915=CARTESIAN_POINT('',(129.593033850613,78.9681526325533,12.));
#916=CARTESIAN_POINT('',(129.593033850613,78.9681526325533,3.6));
#917=CARTESIAN_POINT('',(129.285817277712,79.4503859931227,12.));
#918=CARTESIAN_POINT('Origin',(139.0646356,64.8451793,11.2));
#919=CARTESIAN_POINT('',(150.802608187525,52.5415212875254,11.2));
#920=CARTESIAN_POINT('',(144.792200412175,58.5519288061342,11.2));
#921=CARTESIAN_POINT('',(151.368293612475,53.1072067124746,11.2));
#922=CARTESIAN_POINT('Origin',(151.0854509,52.824364,11.2));
#923=CARTESIAN_POINT('',(145.649921187629,58.8255793815876,11.2));
#924=CARTESIAN_POINT('',(130.26789885882,79.3977537739563,11.2));
#925=CARTESIAN_POINT('',(134.83494544849,72.2289264109849,11.2));
#926=CARTESIAN_POINT('Origin',(129.9305423,79.1828339,11.2));
#927=CARTESIAN_POINT('',(122.9146356,64.8451793,11.2));
#928=CARTESIAN_POINT('Origin',(139.0646356,64.8451793,11.2));
#929=CARTESIAN_POINT('Origin',(150.802608187525,52.5415212875254,3.6));
#930=CARTESIAN_POINT('',(150.802608187525,52.5415212875254,12.));
#931=CARTESIAN_POINT('',(150.919336418039,52.4247930619979,12.));
#932=CARTESIAN_POINT('',(150.802608187525,52.5415212875254,3.6));
#933=CARTESIAN_POINT('Origin',(139.0646356,64.8451793,11.2));
#934=CARTESIAN_POINT('',(122.9146356,64.8451793,5.8));
#935=CARTESIAN_POINT('',(122.9146356,64.8451793,11.2));
#936=CARTESIAN_POINT('Origin',(139.0646356,64.8451793,5.8));
#937=CARTESIAN_POINT('Origin',(129.7399593,79.4386145,12.));
#938=CARTESIAN_POINT('',(130.26789885882,79.3977537739563,12.));
#939=CARTESIAN_POINT('Origin',(129.9305423,79.1828339,12.));
#940=CARTESIAN_POINT('',(130.18243509838,79.5319050098486,12.));
#941=CARTESIAN_POINT('Origin',(151.31890735,52.59090755,12.));
#942=CARTESIAN_POINT('',(151.368293612475,53.1072067124746,12.));
#943=CARTESIAN_POINT('',(151.777056931765,52.6984433757237,12.));
#944=CARTESIAN_POINT('Origin',(151.0854509,52.824364,12.));
#945=CARTESIAN_POINT('Origin',(151.9523638,52.5231365,3.6));
#946=CARTESIAN_POINT('',(151.368293612475,53.1072067124746,3.6));
#947=CARTESIAN_POINT('Origin',(139.0646356,379.879728499999,5.8));
#948=CARTESIAN_POINT('',(146.88705309878,116.495864559031,11.8));
#949=CARTESIAN_POINT('',(145.85941726788,116.467350389012,12.8));
#950=CARTESIAN_POINT('Origin',(139.0646356,379.879728499999,-48.8128843668745));
#951=CARTESIAN_POINT('',(146.88705309878,116.495864559031,5.8));
#952=CARTESIAN_POINT('',(146.88705309878,116.495864559031,5.8));
#953=CARTESIAN_POINT('',(131.24221810122,116.495864559031,5.8));
#954=CARTESIAN_POINT('Origin',(139.0646356,379.879728499999,5.8));
#955=CARTESIAN_POINT('',(131.24221810122,116.495864559031,11.8));
#956=CARTESIAN_POINT('',(131.24221810122,116.495864559031,5.8));
#957=CARTESIAN_POINT('',(132.26985393212,116.467350389012,12.8));
#958=CARTESIAN_POINT('Origin',(139.0646356,379.879728499999,-48.8128843668837));
#959=CARTESIAN_POINT('Origin',(139.0646356,379.879728499999,12.8));
#960=CARTESIAN_POINT('Origin',(159.355434359761,68.0313800187893,12.3));
#961=CARTESIAN_POINT('',(161.907068422088,56.5767002782713,12.8));
#962=CARTESIAN_POINT('',(158.87247144626,67.9019704975708,12.8));
#963=CARTESIAN_POINT('',(162.872994249092,56.8355193207083,11.8));
#964=CARTESIAN_POINT('',(162.872994249092,56.8355193207083,11.8));
#965=CARTESIAN_POINT('',(159.838397273263,68.1607895400078,11.8));
#966=CARTESIAN_POINT('Origin',(127.065872469291,98.9776786261849,12.3));
#967=CARTESIAN_POINT('',(115.256276950906,56.8355193207097,11.8));
#968=CARTESIAN_POINT('',(126.58290955579,99.1070881474034,11.8));
#969=CARTESIAN_POINT('',(116.22220277791,56.5767002782727,12.8));
#970=CARTESIAN_POINT('',(115.256276950906,56.8355193207097,11.8));
#971=CARTESIAN_POINT('',(127.548835382793,98.8482691049664,12.8));
#972=CARTESIAN_POINT('Origin',(118.154054431916,56.0590621933987,12.3));
#973=CARTESIAN_POINT('',(116.654054421441,53.4609859880931,11.8));
#974=CARTESIAN_POINT('Origin',(118.154054431916,56.0590621933987,11.8));
#975=CARTESIAN_POINT('',(117.154054424933,54.3270113898616,12.8));
#976=CARTESIAN_POINT('',(116.654054421441,53.4609859880931,11.8));
#977=CARTESIAN_POINT('Origin',(118.154054431916,56.0590621933987,12.8));
#978=CARTESIAN_POINT('Origin',(119.231857722496,52.5500408149872,12.3));
#979=CARTESIAN_POINT('',(135.625884999759,42.5075943946944,11.8));
#980=CARTESIAN_POINT('',(136.125885003251,43.3736197964629,12.8));
#981=CARTESIAN_POINT('',(135.625884999759,42.5075943946944,11.8));
#982=CARTESIAN_POINT('',(119.481857724242,52.9830535158714,12.8));
#983=CARTESIAN_POINT('',(118.98185772075,52.1170281141029,11.8));
#984=CARTESIAN_POINT('Origin',(137.125885010234,45.1056706,12.3));
#985=CARTESIAN_POINT('',(137.125885010234,42.1056706,11.8));
#986=CARTESIAN_POINT('Origin',(137.125885010234,45.1056706,11.8));
#987=CARTESIAN_POINT('',(137.125885010234,43.1056706,12.8));
#988=CARTESIAN_POINT('',(137.125885010234,42.1056706,11.8));
#989=CARTESIAN_POINT('Origin',(137.125885010234,45.1056706,12.8));
#990=CARTESIAN_POINT('Origin',(136.793084511193,42.6056706,12.3));
#991=CARTESIAN_POINT('',(141.003386189769,42.1056706,11.8));
#992=CARTESIAN_POINT('',(141.003386189769,43.1056706,12.8));
#993=CARTESIAN_POINT('',(141.003386189769,42.1056706,11.8));
#994=CARTESIAN_POINT('',(136.793084511193,43.1056706,12.8));
#995=CARTESIAN_POINT('',(136.793084511193,42.1056706,11.8));
#996=CARTESIAN_POINT('Origin',(141.003386189769,45.1056706,12.3));
#997=CARTESIAN_POINT('',(142.503386200244,42.5075943946944,11.8));
#998=CARTESIAN_POINT('Origin',(141.003386189769,45.1056706,11.8));
#999=CARTESIAN_POINT('',(142.003386196752,43.373619796463,12.8));
#1000=CARTESIAN_POINT('',(142.503386200244,42.5075943946944,11.8));
#1001=CARTESIAN_POINT('Origin',(141.003386189769,45.1056706,12.8));
#1002=CARTESIAN_POINT('Origin',(155.8885933284,50.812897675784,12.3));
#1003=CARTESIAN_POINT('',(161.475216778557,53.4609859880918,11.8));
#1004=CARTESIAN_POINT('',(160.975216775065,54.3270113898604,12.8));
#1005=CARTESIAN_POINT('',(161.475216778557,53.4609859880918,11.8));
#1006=CARTESIAN_POINT('',(155.638593326654,51.2459103766682,12.8));
#1007=CARTESIAN_POINT('',(156.138593330146,50.3798849748997,11.8));
#1008=CARTESIAN_POINT('Origin',(159.975216768082,56.0590621933974,12.3));
#1009=CARTESIAN_POINT('Origin',(159.975216768082,56.0590621933974,11.8));
#1010=CARTESIAN_POINT('Origin',(159.975216768082,56.0590621933974,12.8));
#1011=CARTESIAN_POINT('Origin',(159.975216768082,56.0590621933974,5.8));
#1012=CARTESIAN_POINT('',(161.475216778557,53.4609859880918,5.8));
#1013=CARTESIAN_POINT('',(161.475216778557,53.4609859880918,5.8));
#1014=CARTESIAN_POINT('',(162.872994249092,56.8355193207083,5.8));
#1015=CARTESIAN_POINT('Origin',(159.975216768082,56.0590621933974,5.8));
#1016=CARTESIAN_POINT('',(162.872994249092,56.8355193207083,5.8));
#1017=CARTESIAN_POINT('Origin',(157.362920142839,51.0867503963658,5.8));
#1018=CARTESIAN_POINT('',(142.503386200244,42.5075943946944,5.8));
#1019=CARTESIAN_POINT('',(142.503386200244,42.5075943946944,5.8));
#1020=CARTESIAN_POINT('',(157.362920142839,51.0867503963658,5.8));
#1021=CARTESIAN_POINT('Origin',(141.003386189769,45.1056706,5.8));
#1022=CARTESIAN_POINT('',(141.003386189769,42.1056706,5.8));
#1023=CARTESIAN_POINT('',(141.003386189769,42.1056706,5.8));
#1024=CARTESIAN_POINT('Origin',(141.003386189769,45.1056706,5.8));
#1025=CARTESIAN_POINT('Origin',(134.521533478858,42.1056706,5.8));
#1026=CARTESIAN_POINT('',(137.125885010234,42.1056706,5.8));
#1027=CARTESIAN_POINT('',(137.125885010234,42.1056706,5.8));
#1028=CARTESIAN_POINT('',(134.521533478858,42.1056706,5.8));
#1029=CARTESIAN_POINT('Origin',(137.125885010234,45.1056706,5.8));
#1030=CARTESIAN_POINT('',(135.625884999759,42.5075943946944,5.8));
#1031=CARTESIAN_POINT('',(135.625884999759,42.5075943946944,5.8));
#1032=CARTESIAN_POINT('Origin',(137.125885010234,45.1056706,5.8));
#1033=CARTESIAN_POINT('Origin',(114.74871084366,54.5610366258663,5.8));
#1034=CARTESIAN_POINT('',(116.654054421441,53.4609859880931,5.8));
#1035=CARTESIAN_POINT('',(116.654054421441,53.4609859880931,5.8));
#1036=CARTESIAN_POINT('',(114.74871084366,54.5610366258663,5.8));
#1037=CARTESIAN_POINT('Origin',(118.154054431916,56.0590621933987,5.8));
#1038=CARTESIAN_POINT('',(115.256276950906,56.8355193207097,5.8));
#1039=CARTESIAN_POINT('',(115.256276950906,56.8355193207097,5.8));
#1040=CARTESIAN_POINT('Origin',(118.154054431916,56.0590621933987,5.8));
#1041=CARTESIAN_POINT('Origin',(131.24221810122,116.495864559031,5.8));
#1042=CARTESIAN_POINT('',(131.221342871389,116.417957139821,5.8));
#1043=CARTESIAN_POINT('Origin',(139.064635543528,77.1253854258769,12.8));
#1044=CARTESIAN_POINT('Origin',(163.471124364452,54.6032673160047,5.8));
#1045=CARTESIAN_POINT('',(162.16025241899,59.4955080726891,5.8));
#1046=CARTESIAN_POINT('Origin',(139.064635543528,77.1253854258769,5.8));
#1047=CARTESIAN_POINT('',(156.3970991,55.9701958,5.8));
#1048=CARTESIAN_POINT('Origin',(158.0970991,55.9701958,5.8));
#1049=CARTESIAN_POINT('',(118.3321721,55.9701958,5.8));
#1050=CARTESIAN_POINT('Origin',(120.0321721,55.9701958,5.8));
#1051=CARTESIAN_POINT('Origin',(158.0970991,55.9701958,0.));
#1052=CARTESIAN_POINT('',(156.3970991,55.9701958,8.8));
#1053=CARTESIAN_POINT('',(156.3970991,55.9701958,0.));
#1054=CARTESIAN_POINT('Origin',(158.0970991,55.9701958,8.8));
#1055=CARTESIAN_POINT('Origin',(158.0970991,55.9701958,8.8));
#1056=CARTESIAN_POINT('Origin',(120.0321721,55.9701958,0.));
#1057=CARTESIAN_POINT('',(118.3321721,55.9701958,8.8));
#1058=CARTESIAN_POINT('',(118.3321721,55.9701958,0.));
#1059=CARTESIAN_POINT('Origin',(120.0321721,55.9701958,8.8));
#1060=CARTESIAN_POINT('Origin',(120.0321721,55.9701958,8.8));
#1061=CARTESIAN_POINT('Origin',(129.9305423,79.1828339,3.6));
#1062=CARTESIAN_POINT('',(130.26789885882,79.3977537739563,3.6));
#1063=CARTESIAN_POINT('Origin',(130.26789885882,79.3977537739563,3.6));
#1064=CARTESIAN_POINT('Origin',(151.0854509,52.824364,3.6));
#1065=UNCERTAINTY_MEASURE_WITH_UNIT(LENGTH_MEASURE(0.01),#1069,
'DISTANCE_ACCURACY_VALUE',
'Maximum model space distance between geometric entities at asserted c
onnectivities');
#1066=UNCERTAINTY_MEASURE_WITH_UNIT(LENGTH_MEASURE(0.01),#1069,
'DISTANCE_ACCURACY_VALUE',
'Maximum model space distance between geometric entities at asserted c
onnectivities');
#1067=(
GEOMETRIC_REPRESENTATION_CONTEXT(3)
GLOBAL_UNCERTAINTY_ASSIGNED_CONTEXT((#1065))
GLOBAL_UNIT_ASSIGNED_CONTEXT((#1069,#1071,#1072))
REPRESENTATION_CONTEXT('','3D')
);
#1068=(
GEOMETRIC_REPRESENTATION_CONTEXT(3)
GLOBAL_UNCERTAINTY_ASSIGNED_CONTEXT((#1066))
GLOBAL_UNIT_ASSIGNED_CONTEXT((#1069,#1071,#1072))
REPRESENTATION_CONTEXT('','3D')
);
#1069=(
LENGTH_UNIT()
NAMED_UNIT(*)
SI_UNIT(.MILLI.,.METRE.)
);
#1070=(
LENGTH_UNIT()
NAMED_UNIT(*)
SI_UNIT($,.METRE.)
);
#1071=(
NAMED_UNIT(*)
PLANE_ANGLE_UNIT()
SI_UNIT($,.RADIAN.)
);
#1072=(
NAMED_UNIT(*)
SI_UNIT($,.STERADIAN.)
SOLID_ANGLE_UNIT()
);
#1073=SHAPE_DEFINITION_REPRESENTATION(#1074,#1075);
#1074=PRODUCT_DEFINITION_SHAPE('',$,#1077);
#1075=SHAPE_REPRESENTATION('',(#629),#1067);
#1076=PRODUCT_DEFINITION_CONTEXT('part definition',#1081,'design');
#1077=PRODUCT_DEFINITION('bw2cirque','cirque-housing v2',#1078,#1076);
#1078=PRODUCT_DEFINITION_FORMATION('',$,#1083);
#1079=PRODUCT_RELATED_PRODUCT_CATEGORY('cirque-housing v2',
'cirque-housing v2',(#1083));
#1080=APPLICATION_PROTOCOL_DEFINITION('international standard',
'automotive_design',2009,#1081);
#1081=APPLICATION_CONTEXT(
'Core Data for Automotive Mechanical Design Process');
#1082=PRODUCT_CONTEXT('part definition',#1081,'mechanical');
#1083=PRODUCT('bw2cirque','cirque-housing v2',$,(#1082));
#1084=PRESENTATION_STYLE_ASSIGNMENT((#1086));
#1085=PRESENTATION_STYLE_ASSIGNMENT((#1087));
#1086=SURFACE_STYLE_USAGE(.BOTH.,#1088);
#1087=SURFACE_STYLE_USAGE(.BOTH.,#1089);
#1088=SURFACE_SIDE_STYLE('',(#1090));
#1089=SURFACE_SIDE_STYLE('',(#1091));
#1090=SURFACE_STYLE_FILL_AREA(#1092);
#1091=SURFACE_STYLE_FILL_AREA(#1093);
#1092=FILL_AREA_STYLE('Steel - Satin',(#1094));
#1093=FILL_AREA_STYLE('Opaque(160,160,160)',(#1095));
#1094=FILL_AREA_STYLE_COLOUR('Steel - Satin',#1096);
#1095=FILL_AREA_STYLE_COLOUR('Opaque(160,160,160)',#1097);
#1096=COLOUR_RGB('Steel - Satin',0.627450980392157,0.627450980392157,0.627450980392157);
#1097=COLOUR_RGB('Opaque(160,160,160)',0.627450980392157,0.627450980392157,
0.627450980392157);
ENDSEC;
END-ISO-10303-21;
